<mxfile host="app.diagrams.net" modified="2024-04-09T10:41:27.196Z" agent="Mozilla/5.0 (Windows NT 10.0; Win64; x64) AppleWebKit/537.36 (KHTML, like Gecko) Chrome/123.0.0.0 Safari/537.36 Edg/123.0.0.0" version="24.2.3" etag="Fyx7zkN9MGD6ry2jZkLX" type="github">
  <diagram name="Page-1" id="X9lTiRjfeiRd62Pm0ABC">
    <mxGraphModel>
      <root>
        <mxCell id="0" />
        <mxCell id="1" parent="0" />
      </root>
    </mxGraphModel>
  </diagram>
</mxfile>
